 <svg  version="1.0" xmlns="http://www.w3.org/2000/svg"  width="772.000000pt" height="200.000000pt" viewBox="0 0 772.000000 200.000000"  preserveAspectRatio="xMidYMid meet">  <g transform="translate(0.000000,200.000000) scale(0.050000,-0.050000)" fill="#ffffff" stroke="none"> <path d="M4724 3816 c-13 -13 -24 -47 -24 -75 0 -45 -9 -51 -73 -55 -209 -11 -279 -131 -155 -266 l46 -50 -157 -3 c-431 -6 -503 -331 -84 -380 l101 -12 6 97 6 98 195 6 c107 3 196 7 197 10 0 2 12 85 25 184 l23 180 175 6 c209 7 204 12 168 -210 l-26 -165 182 -5 181 -6 -6 -130 c-9 -233 3 -220 -213 -220 l-188 0 -13 -135 c-20 -218 -17 -215 -212 -213 l-168 1 0 79 c1 43 7 121 15 173 l14 95 -181 0 c-161 0 -183 4 -192 38 -11 43 -88 33 -199 -24 -156 -81 -100 -251 93 -284 72 -12 78 -17 58 -54 -70 -131 26 -181 456 -235 453 -57 495 -50 512 89 7 57 13 61 126 75 291 37 308 315 19 315 -84 0 -42 33 59 47 319 44 460 280 205 344 -65 16 -57 40 20 55 262 52 193 256 -113 330 -147 35 -170 52 -102 74 101 32 115 179 21 230 -57 30 -766 27 -797 -4z"/> <path d="M6848 3722 c-22 -23 -3 -42 43 -42 104 0 72 -56 -243 -423 -173 -202 -338 -396 -366 -432 -74 -93 -77 -86 -50 120 13 102 30 236 37 297 17 145 64 198 173 198 66 0 80 6 74 35 -9 49 -542 46 -552 -4 -5 -20 7 -31 34 -31 90 0 99 -60 71 -440 -47 -615 -53 -603 179 -333 514 599 885 996 938 1007 30 6 52 21 48 33 -6 20 -366 34 -386 15z"/> <path d="M7540 3560 c-27 -9 -84 -17 -125 -18 -83 -2 -106 -42 -24 -42 79 0 77 -34 -23 -372 -51 -175 -102 -349 -112 -388 -24 -88 -162 -206 -172 -146 -3 20 27 149 68 286 40 138 78 267 84 288 12 45 -91 31 -124 -16 -14 -21 -26 -18 -55 11 -155 155 -579 -201 -583 -489 -4 -236 310 -260 451 -34 37 61 53 48 35 -29 -31 -141 67 -170 198 -59 59 49 62 50 62 10 0 -93 114 -99 218 -11 l58 49 12 -48 c31 -125 221 -55 355 130 48 67 98 137 112 155 15 20 11 -9 -9 -77 -77 -253 7 -352 168 -196 l68 66 34 -43 c101 -127 320 -110 509 40 99 78 30 89 -83 13 -106 -72 -213 -80 -278 -19 -81 75 -39 199 67 199 256 0 505 290 323 377 -184 87 -534 -182 -569 -437 -10 -79 -81 -180 -126 -180 -31 0 -14 87 71 354 85 265 85 266 8 266 -47 0 -65 -11 -73 -45 -50 -191 -324 -575 -411 -575 -50 0 -43 39 55 347 l88 277 -94 -13 c-177 -26 -262 -71 -133 -71 62 0 62 -5 -3 -228 -42 -145 -69 -198 -130 -261 -131 -137 -129 -82 21 420 75 252 140 471 144 487 10 34 -18 42 -82 22z m1180 -459 c0 -78 -113 -188 -235 -230 -113 -38 -118 -34 -67 62 107 200 302 309 302 168z m-1667 -15 c42 -169 -186 -526 -337 -526 -156 0 -101 315 87 503 100 100 227 112 250 23z"/> <path d="M240 3424 c0 -8 27 -25 60 -38 l61 -23 -6 -406 -5 -407 -55 -6 c-31 -4 -55 -19 -55 -35 0 -24 45 -29 240 -29 200 0 240 5 240 30 0 20 -20 30 -59 30 -77 0 -76 -1 -83 220 -5 190 -5 190 42 185 71 -9 115 -59 130 -148 13 -76 62 -102 58 -30 -1 18 -3 128 -5 243 -3 227 -21 262 -59 120 -17 -63 -39 -98 -73 -113 -90 -41 -102 -18 -95 180 l7 183 100 0 c153 0 223 -50 246 -175 23 -116 51 -69 51 85 l0 150 -370 0 c-203 0 -370 -7 -370 -16z"/> <path d="M1180 3125 c-128 -64 -146 -245 -24 -245 73 0 114 102 62 154 -35 35 -2 66 72 66 149 0 160 -194 15 -246 -207 -75 -281 -156 -254 -279 25 -112 207 -138 310 -44 33 29 36 29 48 -7 17 -54 84 -68 164 -34 70 29 92 88 32 83 -31 -3 -35 21 -39 221 -1 123 -13 242 -26 266 -50 93 -236 127 -360 65z m198 -518 c-34 -40 -126 -27 -135 20 -13 69 18 134 83 174 l64 39 6 -102 c4 -59 -4 -113 -18 -131z"/> <path d="M1991 3098 l-71 -62 0 52 c0 50 -4 52 -120 52 -133 0 -137 -3 -80 -60 35 -35 40 -67 40 -270 0 -206 -4 -234 -40 -265 -66 -56 -48 -65 140 -65 181 0 229 22 130 60 -49 19 -50 23 -50 228 0 254 30 313 114 224 75 -81 146 -57 146 51 0 123 -101 150 -209 55z"/> <path d="M2620 3146 c-16 -6 -50 -30 -75 -52 l-45 -41 0 44 c0 40 -10 43 -130 43 -125 0 -173 -24 -90 -46 37 -10 40 -27 40 -271 0 -241 -3 -263 -40 -283 -77 -41 -39 -60 120 -60 155 0 219 33 130 67 -61 24 -42 444 22 486 97 64 117 24 124 -241 4 -194 0 -235 -25 -245 -88 -33 -27 -67 119 -67 150 0 176 13 119 61 -62 51 -32 460 37 498 91 50 114 -2 114 -262 0 -196 -4 -218 -41 -237 -70 -38 -22 -60 132 -60 142 0 183 19 121 54 -22 12 -30 77 -35 273 -9 342 -123 455 -299 297 l-63 -56 -56 56 c-53 53 -111 67 -179 42z"/> <path d="M3470 3129 c-114 -58 -152 -185 -69 -229 82 -45 160 23 117 103 -31 58 -8 97 57 97 78 0 105 -34 105 -131 l0 -84 -117 -42 c-154 -57 -223 -125 -223 -223 0 -138 155 -196 279 -104 l53 39 44 -49 c49 -55 122 -52 189 8 39 36 29 70 -16 53 -24 -9 -29 24 -29 210 0 122 -10 243 -23 271 -44 96 -249 142 -367 81z m170 -533 c-49 -40 -93 -29 -111 27 -18 57 23 143 87 182 l54 33 6 -104 c5 -86 -1 -110 -36 -138z"/> <path d="M220 2360 c0 -13 627 -20 1840 -20 1213 0 1840 7 1840 20 0 13 -627 20 -1840 20 -1213 0 -1840 -7 -1840 -20z"/> <path d="M5740 2360 c0 -13 527 -20 1540 -20 1013 0 1540 7 1540 20 0 13 -527 20 -1540 20 -1013 0 -1540 -7 -1540 -20z"/> <path d="M2451 2216 c-17 -25 -31 -53 -31 -62 0 -9 -31 -46 -70 -83 -95 -89 -76 -211 20 -131 23 19 30 19 30 1 0 -83 44 11 48 104 6 115 35 175 84 175 16 0 28 9 28 20 0 38 -78 20 -109 -24z m-51 -184 c0 -15 -13 -38 -30 -52 -31 -26 -47 36 -17 67 23 22 47 15 47 -15z"/> <path d="M2692 2222 c-37 -41 -80 -282 -55 -307 9 -9 32 2 53 25 20 22 26 40 13 40 -54 0 -18 212 39 231 21 6 38 20 38 30 0 32 -52 21 -88 -19z"/> <path d="M3163 2219 c-54 -59 -89 -299 -43 -299 11 0 20 21 20 48 0 26 14 58 30 72 26 21 30 14 30 -50 0 -63 6 -73 37 -65 21 5 51 2 67 -7 34 -19 116 30 116 71 0 14 14 38 32 52 28 24 30 19 17 -47 -17 -91 16 -98 42 -9 13 45 31 65 59 65 31 0 41 -15 46 -65 7 -75 44 -89 44 -17 0 30 21 65 55 90 36 27 45 41 24 41 -17 1 -42 -10 -55 -23 -15 -15 -24 -16 -24 -3 0 27 -182 29 -215 2 -17 -14 -25 -12 -25 4 0 50 -90 10 -120 -54 -39 -84 -60 -82 -60 5 0 71 -31 91 -74 48 -16 -16 -18 -3 -8 45 8 42 30 74 58 87 24 11 44 26 44 35 0 30 -59 14 -97 -26z m217 -208 c0 -27 -9 -54 -20 -61 -25 -16 -48 40 -33 80 18 47 53 35 53 -19z"/> <path d="M224 2156 c-35 -35 -30 -58 30 -120 63 -66 39 -126 -32 -82 -45 28 -71 10 -39 -27 31 -38 85 -34 124 10 44 49 42 61 -21 127 -43 45 -49 61 -29 81 20 20 28 19 42 -3 9 -15 27 -21 39 -13 12 7 17 22 11 32 -16 27 -97 23 -125 -5z"/> <path d="M702 2128 c-23 -29 -37 -61 -31 -70 20 -32 46 -19 53 25 3 24 18 48 33 53 37 12 9 -160 -29 -182 -44 -25 -33 -57 17 -50 32 4 47 22 51 61 5 38 18 55 44 55 21 0 43 9 50 20 7 11 -6 20 -29 20 -28 0 -41 13 -41 43 0 36 8 40 60 30 45 -9 60 -5 60 18 0 57 -190 38 -238 -23z"/> <path d="M2853 2143 c-36 -39 -45 -103 -14 -103 10 0 21 20 25 45 4 29 22 47 51 51 l44 7 -38 -86 c-21 -47 -54 -97 -73 -111 -32 -24 -32 -26 0 -38 19 -7 45 -3 57 9 13 13 16 23 7 23 -9 0 -6 14 8 30 35 43 80 37 80 -10 0 -27 13 -40 40 -40 22 0 40 9 40 20 0 11 -9 20 -20 20 -11 0 -20 50 -20 110 l0 110 -77 0 c-49 0 -89 -13 -110 -37z"/> <path d="M373 2087 c-22 -23 -15 -50 10 -35 16 10 19 -6 10 -56 -16 -81 -2 -102 48 -75 24 13 41 12 50 -2 8 -14 21 -14 41 2 29 25 40 69 12 52 -9 -6 -12 21 -8 58 10 87 -21 90 -47 5 -28 -92 -70 -98 -55 -7 11 68 -20 98 -61 58z"/> <path d="M959 2059 c-49 -49 -48 -154 1 -142 17 4 52 9 78 10 27 2 53 16 58 31 5 15 1 22 -9 16 -11 -6 -15 19 -11 57 10 83 -48 97 -117 28z m81 -27 c0 -32 -56 -83 -72 -66 -7 6 -6 30 2 52 14 47 70 58 70 14z"/> <path d="M1138 2091 c-5 -5 -6 -45 -2 -90 9 -86 44 -113 44 -33 0 54 33 87 87 86 31 -1 35 -12 26 -69 -13 -83 27 -80 50 3 26 100 -67 160 -139 88 -19 -19 -24 -19 -24 0 0 24 -25 32 -42 15z"/> <path d="M1368 2076 c-6 -9 0 -16 12 -16 14 0 17 -24 9 -70 -9 -46 -6 -70 9 -70 12 0 22 16 22 36 0 20 13 54 29 75 28 36 30 33 30 -48 1 -69 6 -83 27 -67 60 51 17 180 -59 178 -38 -1 -74 -9 -79 -18z"/> <path d="M1591 2056 c-65 -94 -43 -136 69 -128 55 4 105 0 111 -10 7 -10 28 -9 50 3 44 23 54 63 11 47 -15 -6 -33 -2 -40 9 -20 32 8 78 54 92 28 9 35 18 18 24 -44 18 -85 -10 -107 -73 -29 -83 -62 -76 -46 10 16 86 -65 103 -120 26z m89 -12 c0 -30 -56 -94 -70 -80 -22 21 10 96 41 96 16 0 29 -7 29 -16z"/> <path d="M1914 2085 c-16 -28 10 -167 30 -160 10 3 18 13 18 21 -1 7 -2 46 -2 84 0 63 -25 93 -46 55z"/> <path d="M2031 2056 c-56 -81 -36 -171 30 -135 24 13 41 12 50 -2 8 -14 21 -14 41 2 31 26 39 68 9 50 -11 -7 -14 17 -7 59 14 86 -68 103 -123 26z m89 -12 c0 -30 -56 -94 -70 -80 -22 21 10 96 41 96 16 0 29 -7 29 -16z"/> <path d="M2511 2056 c-37 -53 -40 -99 -8 -131 26 -26 97 2 97 38 0 15 -9 14 -28 -2 -18 -15 -33 -16 -41 -3 -7 11 6 30 28 42 47 25 56 100 12 100 -16 0 -43 -20 -60 -44z"/> <path d="M3772 2057 c-41 -58 -41 -129 -1 -145 44 -17 133 78 125 133 -9 63 -83 70 -124 12z m68 -46 c0 -27 -9 -54 -20 -61 -25 -16 -48 40 -33 80 18 47 53 35 53 -19z"/> </g> </svg> 